# xmcd
#
# Track frame offsets:
#	150
#	20553
#	50445
#	75733
#	97663
#	119365
#	135543
#	174406
#	203847
#	220321
#	238155
#	258275
#
# Disc length: 3756
#
# Revision: 7
# Processed by: cddbd v1.5.1PL0 Copyright (c) Steve Scherf et al.
# Submitted via: audiograbber 1.83.01
# Normalized: r6:DSETVAR1
#
DISCID=9e0eaa0c
DTITLE=Various Artist - TANGLED UP IN BLUES - SONGS OF BOB DYLAN
DYEAR=1999
DGENRE=Blues
TTITLE0=Taj Mahal - It Takes A Lot To Laugh
TTITLE1=Mavis Staples - Gotta Serve Somebody
TTITLE2=Isaac Hayes - Lay, Lady, Lay
TTITLE3=R.L. Burnside - Everything Is Broken
TTITLE4=Luther Guitar Johnson - Pledging My Time
TTITLE5=John Hammond - I'll Be Your Baby Tonight
TTITLE6=James Solberg - Ballad Of A thin Man
TTITLE7=Alvin Youngblood Hart - Million Miles
TTITLE8=Leon Russell - Watching The River Flow
TTITLE9=The Holmes Brothers - Wallflower
TTITLE10=Larry McCray - All Along The Watchtower
TTITLE11=The band - One Too Many Mornin's
EXTD=YEAR: 1999 ID3G: 0
EXTT0=Taj Mahal\n
EXTT1=Mavis Staples\n
EXTT2=Issac Hayes\n
EXTT3=R.L. Burnside\n
EXTT4=Lutar Guitar Jr. Johnson\n
EXTT5=John Hammond\n
EXTT6=James Solberg Band\n
EXTT7=Alvin Youngblood Hart\n
EXTT8=Leon Russell\n
EXTT9=The Holmes Brothers\n
EXTT10=Larry McCray\n
EXTT11=The Band\n
PLAYORDER=
